<?xml version="1.0" encoding="UTF-8" standalone="no"?>
<!-- Created with Inkscape (http://www.inkscape.org/) -->

<svg
   width="2000"
   height="1000"
   viewBox="0 0 2000 1000"
   version="1.1"
   id="svg1"
   sodipodi:docname="1.svg"
   inkscape:version="1.3.2 (091e20e, 2023-11-25, custom)"
   xmlns:inkscape="http://www.inkscape.org/namespaces/inkscape"
   xmlns:sodipodi="http://sodipodi.sourceforge.net/DTD/sodipodi-0.dtd"
   xmlns="http://www.w3.org/2000/svg"
   xmlns:svg="http://www.w3.org/2000/svg">
  <sodipodi:namedview
     id="namedview1"
     pagecolor="#ffffff"
     bordercolor="#000000"
     borderopacity="0.25"
     inkscape:showpageshadow="true"
     inkscape:pageopacity="0.0"
     inkscape:pagecheckerboard="true"
     inkscape:deskcolor="#d1d1d1"
     inkscape:document-units="px"
     showborder="false"
     borderlayer="true"
     shape-rendering="auto"
     inkscape:clip-to-page="false"
     labelstyle="default"
     showgrid="true"
     inkscape:zoom="0.5"
     inkscape:cx="788"
     inkscape:cy="476"
     inkscape:window-width="1536"
     inkscape:window-height="938"
     inkscape:window-x="-6"
     inkscape:window-y="-6"
     inkscape:window-maximized="1"
     inkscape:current-layer="layer1">
    <inkscape:grid
       visible="true"
       snapvisiblegridlinesonly="true"
       enabled="true"
       id="grid1"
       units="px"
       originx="0"
       originy="0"
       spacingx="20"
       spacingy="20"
       empcolor="#0099e5"
       empopacity="0.30196078"
       color="#0099e5"
       opacity="0.14901961"
       empspacing="5"
       dotted="false"
       gridanglex="30"
       gridanglez="30" />
  </sodipodi:namedview>
  <defs
     id="defs1" />
  <g
     inkscape:label="Calque 1"
     inkscape:groupmode="layer"
     id="layer1">
    <path
       style="fill:#9ccaf1;stroke:#252525;stroke-width:0.8"
       d="m 1100,1000 v -20 l 20,-20 v -20 l 60,-20 h 60 l 20,-20 h 40 l 20,-20 v -40 l -20,-40 h -40 l -20,-20 h -40 l -20,20 h -40 l -20,-20 -20,-20 v -40 l 40,-20 h 80 l 40,-20 h 40 l 20,20 h 40 l 20,-20 h 40 l 20,-40 20,-20 h 40 80 l 20,-20 20,-80 v -40 l -20,-40 v -60 l 20,-40 40,-20 h 80 l 20,20 20,60 -20,40 v 80 l 20,40 20,60 v 40 l -20,40 v 60 l 20,60 v 60 l 20,40 20,20 h 80 l 20,20 v 20 l 20,20 h -20 z"
       id="path1"
       sodipodi:nodetypes="cccccccccccccccccccccccccccccccccccccccccccccccccccccccccc" />
    <path
       style="fill:#a05a2c;stroke:#252525;stroke-width:0.8"
       d="m 840,1000 v -40 l 20,-20 40,-20 20,-60 V 820 L 880,800 H 840 L 820,760 V 740 L 800,700 780,680 H 720 L 700,660 H 620 L 600,640 560,620 H 460 l -20,20 -20,40 h -40 -60 l -20,-40 -20,-20 -20,-40 v -40 l 20,-20 v -60 l -20,-40 -20,-20 h -80 l -20,20 v 60 20 l -20,20 v 80 l 20,40 v 80 l 20,40 20,20 40,20 20,20 20,40 v 20 l -40,20 h -40 l -20,20 -20,40 v 40 z"
       id="path2"
       sodipodi:nodetypes="cccccccccccccccccccccccccccccccccccccccccccccccccc" />
    <path
       style="fill:#9ccaf1;stroke:#252525;stroke-width:0.8"
       d="m 800,320 20,-20 h 60 l 40,-20 h 40 100 l 20,20 20,40 v 40 l -20,40 -20,-20 -20,60 -40,-60 -20,20 -40,20 -20,-60 h -40 l -20,40 -40,-20 -20,-40 z"
       id="path3"
       sodipodi:nodetypes="ccccccccccccccccccccc" />
    <path
       style="fill:#ff0000;stroke:#ff0000;stroke-width:2;stroke-opacity:1;stroke-dasharray:none"
       d="M 0,960 H 2000"
       id="path4" />
  </g>
</svg>
